<svg width="32" height="32" viewBox="0 0 32 32" fill="none" xmlns="http://www.w3.org/2000/svg">
<path d="M16.0001 0L2.14014 8V24L16.0001 32L29.8601 24V8L16.0001 0ZM24.0001 22.12C24.0001 23.063 23.1401 23.839 21.9641 23.839C21.1201 23.839 20.1611 23.5 19.5631 22.76L11.5631 13.24V22.12C11.5631 23.079 10.8031 23.839 9.86014 23.839H9.76014C9.30528 23.8356 8.87002 23.6534 8.54838 23.3318C8.22674 23.0101 8.04454 22.5749 8.04114 22.12V9.88C8.04114 8.937 8.88014 8.161 10.0411 8.161C10.9011 8.161 11.8801 8.5 12.4781 9.24L20.4371 18.76V9.88C20.4371 8.917 21.2401 8.161 22.1611 8.161H22.2601C22.7152 8.16388 23.1507 8.34592 23.4725 8.66767C23.7942 8.98942 23.9763 9.42498 23.9791 9.88V22.12H24.0001Z" fill="white"/>
</svg>
