<svg width="46" height="46" viewBox="0 0 46 46" fill="none" xmlns="http://www.w3.org/2000/svg">
<g clip-path="url(#clip0_304_189)">
<path d="M35.8395 21.0044C34.4032 19.5831 34.0101 15.3497 35.8395 13.4749L36.3838 12.8398L36.9281 13.3842C38.682 14.7751 39.6799 16.3476 39.9218 18.1015C42.3616 17.3597 44.1537 17.845 45.9999 19.0087C44.8029 21.5096 42.9583 23.078 38.8332 22.9095C35.0984 32.2125 27.0701 37.7873 15.1558 37.8779C8.86614 37.8779 4.36048 35.61 1.63884 30.8926C0.126591 28.1137 -0.193522 26.1115 0.0968528 22.2745H4.08843V17.4665H8.8055V12.7491H18.2402V8.12256H23.8647V17.4665H28.582V22.2745C31.8155 22.3683 33.8241 22.1685 35.8394 21.0044H35.8395ZM8.35206 18.555H8.62419V22.0023H8.35197V18.555H8.35206ZM7.71704 18.555H8.07992V22.0023H7.71695V18.555H7.71704ZM7.08203 18.555H7.4449V22.0023H7.08193V18.555H7.08203ZM6.44701 18.555H6.8098V22.0023H6.4471V18.555H6.44701ZM5.90265 18.555H6.17487V22.0023H5.90265V18.555ZM5.26763 18.555H5.53986V22.0023H5.26763V18.555ZM4.90475 18.2829V22.3652H8.98707V18.2829H4.90475ZM13.0694 13.9284H13.3415V17.285H13.0693V13.9284H13.0694ZM12.4344 13.9284H12.7065V17.285H12.4343V13.9284H12.4344ZM11.7993 13.9284H12.1622V17.285H11.7993V13.9284ZM11.1643 13.9284H11.5272V17.285H11.1643V13.9284ZM10.5292 13.9284H10.8922V17.285H10.5292V13.9284ZM9.98497 13.9284H10.2572V17.285H9.98497V13.9284ZM9.62209 13.5656V17.6479H13.7044V13.5656H9.62209ZM13.0694 18.555H13.3415V22.0023H13.0693V18.555H13.0694ZM12.4344 18.555H12.7065V22.0023H12.4343V18.555H12.4344ZM11.7993 18.555H12.1622V22.0023H11.7993V18.555ZM11.1643 18.555H11.5272V22.0023H11.1643V18.555ZM10.5292 18.555H10.8922V22.0023H10.5292V18.555ZM9.98497 18.555H10.2572V22.0023H9.98497V18.555ZM9.62209 18.2829V22.3652H13.7044V18.2829H9.62209ZM17.696 18.5551H18.0589V22.0023H17.6959V18.555L17.696 18.5551ZM17.1516 18.5551H17.4238V22.0023H17.1516V18.555V18.5551ZM16.5166 18.5551H16.7888V22.0023H16.5166V18.555V18.5551ZM15.8816 18.5551H16.2446V22.0023H15.8816V18.555V18.5551ZM15.2466 18.5551H15.6095V22.0023H15.2466V18.555V18.5551ZM14.6116 18.5551H14.9744V22.0023H14.6116V18.555V18.5551ZM14.3393 18.2829V22.3652H18.4217V18.2829H14.3394H14.3393ZM17.6959 13.9284H18.0589V17.285H17.6959V13.9284ZM17.1516 13.9284H17.4238V17.285H17.1516V13.9284ZM16.5166 13.9284H16.7888V17.285H16.5166V13.9284ZM15.8816 13.9284H16.2446V17.285H15.8816V13.9284ZM15.2466 13.9284H15.6095V17.285H15.2466V13.9284ZM14.6116 13.9284H14.9744V17.285H14.6116V13.9284ZM14.3393 13.5656V17.6479H18.4217V13.5656H14.3394H14.3393ZM22.4133 18.555H22.7762V22.0023H22.4132V18.555H22.4133ZM21.7783 18.555H22.1411V22.0023H21.7783V18.555ZM21.2339 18.555H21.5062V22.0023H21.2339V18.555ZM20.5989 18.555H20.8712V22.0023H20.5989V18.555ZM19.9639 18.555H20.3268V22.0023H19.9639V18.555ZM19.3289 18.555H19.6918V22.0023H19.3288V18.555H19.3289ZM19.0567 18.2829V22.3652H23.0483V18.2829H19.0567ZM22.4132 13.9284H22.7762V17.285H22.4132V13.9284ZM21.7783 13.9284H22.1411V17.285H21.7783V13.9284ZM21.2339 13.9284H21.5062V17.285H21.2339V13.9284ZM20.5989 13.9284H20.8712V17.285H20.5989V13.9284ZM19.9639 13.9284H20.3268V17.285H19.9639V13.9284ZM19.3289 13.9284H19.6918V17.285H19.3288V13.9284H19.3289ZM19.0567 13.5656V17.6479H23.0483V13.5656H19.0567ZM22.4132 9.21111H22.7762V12.5677H22.4132V9.21111ZM21.7783 9.21111H22.1411V12.5677H21.7783V9.21111ZM21.2339 9.21111H21.5062V12.5677H21.2339V9.21111ZM20.5989 9.21111H20.8712V12.5677H20.5989V9.21111ZM19.9639 9.21111H20.3268V12.5677H19.9639V9.21111ZM19.3289 9.21111H19.6918V12.5677H19.3288V9.21111H19.3289ZM19.0567 8.84823V12.9305H23.0483V8.84823H19.0567ZM27.1307 18.555H27.4028V22.0023H27.1306V18.555H27.1307ZM26.4956 18.555H26.8585V22.0023H26.4956V18.555ZM25.8605 18.555H26.2235V22.0023H25.8605V18.555ZM25.3163 18.555H25.5885V22.0023H25.3163V18.555ZM24.6812 18.555H24.9535V22.0023H24.6812V18.555ZM24.0462 18.555H24.4091V22.0023H24.0461V18.555H24.0462ZM23.6833 18.2829V22.3652H27.7657V18.2829H23.6834H23.6833ZM13.4324 28.8969C13.1299 28.8969 12.8729 29.0179 12.6612 29.2598C12.4496 29.5017 12.3437 29.7738 12.3437 30.0762C12.3437 30.3787 12.4496 30.6356 12.6612 30.8473C12.8729 31.059 13.1299 31.1649 13.4324 31.1649C13.7348 31.1649 13.9917 31.059 14.2034 30.8473C14.4151 30.6355 14.5209 30.3787 14.5209 30.0762C14.5209 29.8343 14.4755 29.6378 14.3849 29.4866C14.2941 29.3354 14.158 29.1993 13.9766 29.0783C13.7952 28.9574 13.6138 28.8969 13.4324 28.8969ZM13.4324 29.2598C13.5533 29.2598 13.644 29.29 13.7045 29.3505C13.5835 29.4109 13.523 29.5017 13.523 29.6227C13.523 29.8041 13.644 29.8948 13.886 29.8948C14.0069 29.8948 14.0976 29.8343 14.158 29.7133C14.2186 29.8343 14.2488 29.9552 14.2488 30.0762C14.2488 30.6205 13.9765 30.8926 13.4324 30.8926C12.8882 30.8926 12.6159 30.6205 12.6159 30.0762C12.6159 29.5319 12.8881 29.2597 13.4324 29.2597V29.2598ZM16.426 37.0615C13.9464 35.8519 12.2228 34.1586 11.2551 31.9813C10.227 32.2837 8.98716 32.4651 7.53565 32.5256H3.63472C6.65868 35.4891 10.4991 37.001 15.1558 37.0615H16.426Z" fill="white"/>
</g>
<defs>
<clipPath id="clip0_304_189">
<rect width="46" height="46" fill="white"/>
</clipPath>
</defs>
</svg>
