<svg width="46" height="46" viewBox="0 0 46 46" fill="none" xmlns="http://www.w3.org/2000/svg">
<g clip-path="url(#clip0_304_107)">
<path d="M35.8395 21.0042C34.4032 19.5829 34.0101 15.3494 35.8395 13.4747L36.3838 12.8396L36.9281 13.3839C38.682 14.7749 39.6799 16.3473 39.9218 18.1013C42.3616 17.3594 44.1537 17.8448 45.9999 19.0084C44.8029 21.5094 42.9583 23.0778 38.8332 22.9092C35.0984 32.2122 27.0701 37.787 15.1558 37.8777C8.86614 37.8777 4.36048 35.6097 1.63884 30.8924C0.126591 28.1134 -0.193522 26.1113 0.0968528 22.2742H4.08843V17.4662H8.8055V12.7488H18.2402V8.12231H23.8647V17.4662H28.582V22.2742C31.8155 22.368 33.8241 22.1682 35.8394 21.0042H35.8395ZM8.35206 18.5548H8.62419V22.0021H8.35197V18.5548H8.35206ZM7.71704 18.5548H8.07992V22.0021H7.71695V18.5548H7.71704ZM7.08203 18.5548H7.4449V22.0021H7.08193V18.5548H7.08203ZM6.44701 18.5548H6.8098V22.0021H6.4471V18.5548H6.44701ZM5.90265 18.5548H6.17487V22.0021H5.90265V18.5548ZM5.26763 18.5548H5.53986V22.0021H5.26763V18.5548ZM4.90475 18.2827V22.365H8.98707V18.2827H4.90475ZM13.0694 13.9282H13.3415V17.2848H13.0693V13.9282H13.0694ZM12.4344 13.9282H12.7065V17.2848H12.4343V13.9282H12.4344ZM11.7993 13.9282H12.1622V17.2848H11.7993V13.9282ZM11.1643 13.9282H11.5272V17.2848H11.1643V13.9282ZM10.5292 13.9282H10.8922V17.2848H10.5292V13.9282ZM9.98497 13.9282H10.2572V17.2848H9.98497V13.9282ZM9.62209 13.5653V17.6476H13.7044V13.5653H9.62209ZM13.0694 18.5548H13.3415V22.0021H13.0693V18.5548H13.0694ZM12.4344 18.5548H12.7065V22.0021H12.4343V18.5548H12.4344ZM11.7993 18.5548H12.1622V22.0021H11.7993V18.5548ZM11.1643 18.5548H11.5272V22.0021H11.1643V18.5548ZM10.5292 18.5548H10.8922V22.0021H10.5292V18.5548ZM9.98497 18.5548H10.2572V22.0021H9.98497V18.5548ZM9.62209 18.2827V22.365H13.7044V18.2827H9.62209ZM17.696 18.5549H18.0589V22.0021H17.6959V18.5548L17.696 18.5549ZM17.1516 18.5549H17.4238V22.0021H17.1516V18.5548V18.5549ZM16.5166 18.5549H16.7888V22.0021H16.5166V18.5548V18.5549ZM15.8816 18.5549H16.2446V22.0021H15.8816V18.5548V18.5549ZM15.2466 18.5549H15.6095V22.0021H15.2466V18.5548V18.5549ZM14.6116 18.5549H14.9744V22.0021H14.6116V18.5548V18.5549ZM14.3393 18.2827V22.365H18.4217V18.2827H14.3394H14.3393ZM17.6959 13.9282H18.0589V17.2848H17.6959V13.9282ZM17.1516 13.9282H17.4238V17.2848H17.1516V13.9282ZM16.5166 13.9282H16.7888V17.2848H16.5166V13.9282ZM15.8816 13.9282H16.2446V17.2848H15.8816V13.9282ZM15.2466 13.9282H15.6095V17.2848H15.2466V13.9282ZM14.6116 13.9282H14.9744V17.2848H14.6116V13.9282ZM14.3393 13.5653V17.6476H18.4217V13.5653H14.3394H14.3393ZM22.4133 18.5548H22.7762V22.0021H22.4132V18.5548H22.4133ZM21.7783 18.5548H22.1411V22.0021H21.7783V18.5548ZM21.2339 18.5548H21.5062V22.0021H21.2339V18.5548ZM20.5989 18.5548H20.8712V22.0021H20.5989V18.5548ZM19.9639 18.5548H20.3268V22.0021H19.9639V18.5548ZM19.3289 18.5548H19.6918V22.0021H19.3288V18.5548H19.3289ZM19.0567 18.2827V22.365H23.0483V18.2827H19.0567ZM22.4132 13.9282H22.7762V17.2848H22.4132V13.9282ZM21.7783 13.9282H22.1411V17.2848H21.7783V13.9282ZM21.2339 13.9282H21.5062V17.2848H21.2339V13.9282ZM20.5989 13.9282H20.8712V17.2848H20.5989V13.9282ZM19.9639 13.9282H20.3268V17.2848H19.9639V13.9282ZM19.3289 13.9282H19.6918V17.2848H19.3288V13.9282H19.3289ZM19.0567 13.5653V17.6476H23.0483V13.5653H19.0567ZM22.4132 9.21086H22.7762V12.5674H22.4132V9.21086ZM21.7783 9.21086H22.1411V12.5674H21.7783V9.21086ZM21.2339 9.21086H21.5062V12.5674H21.2339V9.21086ZM20.5989 9.21086H20.8712V12.5674H20.5989V9.21086ZM19.9639 9.21086H20.3268V12.5674H19.9639V9.21086ZM19.3289 9.21086H19.6918V12.5674H19.3288V9.21086H19.3289ZM19.0567 8.84798V12.9303H23.0483V8.84798H19.0567ZM27.1307 18.5548H27.4028V22.0021H27.1306V18.5548H27.1307ZM26.4956 18.5548H26.8585V22.0021H26.4956V18.5548ZM25.8605 18.5548H26.2235V22.0021H25.8605V18.5548ZM25.3163 18.5548H25.5885V22.0021H25.3163V18.5548ZM24.6812 18.5548H24.9535V22.0021H24.6812V18.5548ZM24.0462 18.5548H24.4091V22.0021H24.0461V18.5548H24.0462ZM23.6833 18.2827V22.365H27.7657V18.2827H23.6834H23.6833ZM13.4324 28.8966C13.1299 28.8966 12.8729 29.0176 12.6612 29.2596C12.4496 29.5014 12.3437 29.7736 12.3437 30.076C12.3437 30.3784 12.4496 30.6354 12.6612 30.847C12.8729 31.0588 13.1299 31.1646 13.4324 31.1646C13.7348 31.1646 13.9917 31.0588 14.2034 30.847C14.4151 30.6353 14.5209 30.3784 14.5209 30.076C14.5209 29.834 14.4755 29.6376 14.3849 29.4864C14.2941 29.3351 14.158 29.199 13.9766 29.0781C13.7952 28.9572 13.6138 28.8966 13.4324 28.8966ZM13.4324 29.2596C13.5533 29.2596 13.644 29.2898 13.7045 29.3502C13.5835 29.4107 13.523 29.5014 13.523 29.6225C13.523 29.8039 13.644 29.8945 13.886 29.8945C14.0069 29.8945 14.0976 29.834 14.158 29.713C14.2186 29.834 14.2488 29.955 14.2488 30.076C14.2488 30.6203 13.9765 30.8924 13.4324 30.8924C12.8882 30.8924 12.6159 30.6203 12.6159 30.076C12.6159 29.5316 12.8881 29.2595 13.4324 29.2595V29.2596ZM16.426 37.0613C13.9464 35.8517 12.2228 34.1583 11.2551 31.981C10.227 32.2835 8.98716 32.4648 7.53565 32.5253H3.63472C6.65868 35.4888 10.4991 37.0008 15.1558 37.0613H16.426Z" fill="white"/>
</g>
<defs>
<clipPath id="clip0_304_107">
<rect width="46" height="46" fill="white"/>
</clipPath>
</defs>
</svg>
