<svg width="48" height="48" viewBox="0 0 48 48" fill="none" xmlns="http://www.w3.org/2000/svg">
<path d="M32.9998 12.16C32.9998 12.16 19.3198 15.58 25.8798 23.12C27.8198 25.34 25.3798 27.34 25.3798 27.34C25.3798 27.34 30.2798 24.84 27.9998 21.64C25.8798 18.7 24.2798 17.24 32.9998 12.16ZM24.0598 14.56C32.1598 8.16 27.9998 4 27.9998 4C29.6798 10.6 22.0798 12.6 19.3398 16.72C17.4598 19.52 20.2598 22.54 23.9998 26C22.5798 22.6 17.5598 19.68 24.0598 14.56ZM18.7398 34.94C12.5798 36.66 22.4998 40.2 30.3198 36.86C29.5598 36.56 28.8198 36.2 28.1198 35.78C25.3998 36.4 22.5998 36.52 19.8398 36.14C17.2198 35.82 18.7398 34.94 18.7398 34.94ZM29.3798 31.58C25.8798 32.34 22.2598 32.52 18.6998 32.1C16.0798 31.84 17.7998 30.56 17.7998 30.56C10.9998 32.82 21.5598 35.36 30.9998 32.6C30.4198 32.38 29.8598 32 29.3798 31.58ZM36.2198 38.18C36.2198 38.18 37.3598 39.12 34.9998 39.84C30.4398 41.2 16.1398 41.62 12.1798 39.9C10.7598 39.28 13.4398 38.42 14.2798 38.24C14.7398 38.12 15.1998 38.08 15.6598 38.08C14.0798 37 5.39984 40.28 11.2798 41.2C27.2198 43.8 40.3598 40 36.2198 38.18ZM30.7398 28.46C31.3198 28.08 31.9398 27.76 32.5798 27.48C32.5798 27.48 29.5598 28 26.5398 28.28C23.3398 28.6 20.1198 28.64 16.9198 28.4C12.2198 27.78 19.4998 26 19.4998 26C17.2998 26 15.1398 26.52 13.1798 27.5C9.07984 29.5 23.3798 30.4 30.7398 28.46ZM32.5398 33.3C32.4998 33.38 32.4598 33.44 32.3798 33.5C42.3998 30.88 38.7198 24.22 33.9198 25.88C33.6598 26 33.4398 26.16 33.2998 26.38C33.5798 26.28 33.8598 26.2 34.1598 26.14C36.5598 25.66 39.9998 29.4 32.5398 33.3ZM32.7998 42.52C26.7798 43.56 20.6198 43.64 14.5598 42.8C14.5598 42.8 15.4798 43.56 20.1798 43.86C27.3798 44.32 38.4398 43.6 38.6998 40.2C38.7598 40.22 38.2398 41.5 32.7998 42.52Z" fill="white"/>
</svg>
