<svg width="42" height="42" viewBox="0 0 42 42" fill="none" xmlns="http://www.w3.org/2000/svg">
<g clip-path="url(#clip0_304_101)">
<path d="M41.2298 25.7651C41.2055 25.6912 41.172 25.6206 41.13 25.5551C40.8868 25.0966 40.2953 24.9584 39.3678 25.1509C36.4733 25.7459 35.3533 25.3784 34.9473 25.1159C37.2958 21.5319 39.226 17.2024 40.269 13.1634C40.745 11.3259 41.6655 6.99813 40.4825 4.88588C40.4076 4.74065 40.3197 4.60243 40.22 4.47288C37.9608 1.59238 34.6498 0.0436316 30.6423 0.00163165C28.026 -0.0263684 25.7948 0.607132 25.1893 0.839882C24.8897 0.783734 24.5886 0.735882 24.2863 0.696382C23.5283 0.559612 22.7604 0.485279 21.9903 0.474132C19.9218 0.440882 18.135 0.936132 16.6528 1.94413C15.1548 1.38238 8.27555 -0.934618 4.0178 2.08238C1.63605 3.76763 0.540548 6.77763 0.752298 11.0319C0.824048 12.4634 1.63955 16.8664 2.92755 21.0839C3.73255 23.7194 4.56905 25.8124 5.4353 27.3524C6.40305 29.0919 7.4058 30.1401 8.4348 30.4849C9.2188 30.7439 10.4175 30.7351 11.6863 29.2091C12.7869 27.8927 13.9219 26.6054 15.09 25.3486C15.8513 25.7599 16.6755 25.9821 17.5225 26.0084C17.5225 26.0107 17.5225 26.013 17.5225 26.0154C17.3753 26.1907 17.2312 26.3687 17.0903 26.5491C16.497 27.3016 16.3728 27.4591 14.4653 27.8529C13.9228 27.9649 12.4808 28.2606 12.4598 29.2721C12.4558 29.4743 12.5112 29.6733 12.619 29.8444C13.0163 30.5846 14.2325 30.9119 14.3953 30.9521C16.7315 31.5349 18.779 31.1131 20.2963 29.7639C20.2665 33.6681 20.431 37.4954 20.9 38.6679C21.2868 39.6356 22.2335 41.9999 25.2225 41.9999C25.66 41.9999 26.143 41.9474 26.6733 41.8354C29.7918 41.1669 31.1463 39.7879 31.6695 36.7499C31.932 35.2274 32.373 31.7186 32.6128 29.5731C32.6425 29.4506 32.6758 29.3631 32.7125 29.3351C32.7125 29.3351 32.835 29.2511 33.4598 29.3876C33.4852 29.3933 33.5109 29.3974 33.5368 29.3999L33.9813 29.4384L34.0075 29.4401C35.4898 29.5084 37.3518 29.1916 38.4368 28.6876C39.5638 28.1626 41.5973 26.8799 41.228 25.7651H41.2298ZM4.1473 20.7829C2.8453 16.5216 2.0858 12.2341 2.0263 11.0336C1.83555 7.23263 2.75605 4.58838 4.7598 3.17088C7.97455 0.897632 13.2298 2.22588 15.4488 2.94338L15.4313 2.96088C11.891 6.53438 11.975 12.6454 11.9873 13.0199C11.9873 13.1634 11.9978 13.3681 12.0153 13.6499C12.0748 14.6754 12.1903 16.5899 11.8858 18.7564C11.6058 20.7689 12.2253 22.7394 13.5885 24.1621C13.7285 24.3091 13.8773 24.4474 14.0295 24.5769C13.4223 25.2261 12.1045 26.6646 10.6993 28.3534C9.7053 29.5469 9.0193 29.3176 8.7953 29.2424C8.1093 29.0149 7.37255 28.2151 6.62705 26.9289C5.78705 25.4606 4.9418 23.3729 4.1508 20.7829H4.1473ZM14.6595 29.6869C14.3939 29.62 14.1392 29.5151 13.9035 29.3754C14.0593 29.3071 14.3183 29.2179 14.7488 29.1304C16.9958 28.6666 17.3423 28.3411 18.1 27.3804C18.3042 27.1139 18.5184 26.8553 18.7423 26.6051C18.8011 26.5394 18.8453 26.4618 18.8718 26.3776C19.1693 26.1134 19.3478 26.1851 19.6348 26.3041C19.9078 26.4179 20.1738 26.7591 20.2823 27.1354C20.3348 27.3139 20.3908 27.6516 20.2035 27.9141C18.6215 30.1296 16.315 30.1016 14.6595 29.6869ZM18.324 22.7079L18.233 22.9529C18.0003 23.5776 17.7833 24.1586 17.6485 24.7099C16.4813 24.7064 15.3438 24.2059 14.481 23.3046C13.382 22.1584 12.8833 20.5641 13.1108 18.9296C13.431 16.6406 13.3138 14.6474 13.2508 13.5764L13.228 13.1914C13.746 12.7329 16.1435 11.4484 17.8533 11.8404C18.6338 12.0189 19.1098 12.5509 19.3058 13.4644C20.3295 18.1964 19.4423 20.1669 18.7283 21.7524C18.5834 22.0663 18.4492 22.3849 18.3258 22.7079H18.324ZM31.211 30.7089C31.1813 31.0186 31.148 31.3669 31.1025 31.7519L30.847 32.5184C30.8268 32.5794 30.8162 32.6431 30.8155 32.7074C30.805 33.5386 30.721 33.8431 30.6143 34.2299C30.4405 34.8328 30.3349 35.4532 30.2993 36.0796C30.1068 38.5541 28.7628 39.9769 26.0695 40.5526C23.4183 41.1214 22.9475 39.6846 22.5345 38.4159C22.4915 38.2826 22.446 38.1502 22.398 38.0186C22.0218 36.9931 22.0655 35.5476 22.1233 33.5474C22.1513 32.5656 22.0795 30.2206 21.5458 28.9169C21.5528 28.4041 21.5633 27.8826 21.579 27.3559C21.5805 27.2889 21.571 27.2221 21.551 27.1581C21.5341 27.0351 21.5083 26.9135 21.474 26.7941C21.2605 26.0451 20.739 25.4186 20.109 25.1579C19.8605 25.0546 19.4038 24.8656 18.8543 25.0056C18.9715 24.5226 19.1745 23.9784 19.395 23.3869L19.4878 23.1384C19.5928 22.8584 19.7223 22.5696 19.8605 22.2634C20.606 20.6044 21.628 18.3329 20.5185 13.2019C20.1038 11.2804 18.716 10.3424 16.6125 10.5594C15.3525 10.6906 14.1975 11.1999 13.6218 11.4904C13.5063 11.5488 13.3919 11.6095 13.2788 11.6724C13.4398 9.73688 14.047 6.11788 16.3168 3.82888C16.4852 3.65899 16.6622 3.49778 16.847 3.34588C16.939 3.32827 17.0258 3.28997 17.1008 3.23388C18.4168 2.23638 20.067 1.74638 22.0043 1.77613C22.7218 1.78838 23.4078 1.83563 24.0588 1.91788C27.4538 2.53913 29.7358 4.45013 31.1218 6.08813C32.5463 7.77163 33.318 9.46738 33.626 10.3826C31.3108 10.1481 29.7358 10.6049 28.936 11.7476C27.2 14.2291 29.888 19.0486 31.1795 21.3656C31.4158 21.7891 31.6205 22.1566 31.6853 22.3106C32.1053 23.3309 32.6495 24.0116 33.0468 24.5086C33.1693 24.6609 33.2883 24.8079 33.3775 24.9374C32.6775 25.1404 31.4175 25.6076 31.5313 27.9421C31.4878 28.4181 31.4388 28.8936 31.3843 29.3684C31.3038 29.7324 31.2618 30.1734 31.2093 30.7089H31.211ZM32.7685 27.8721C32.6985 26.4161 33.241 26.2639 33.8133 26.1046C33.8926 26.0827 33.9714 26.0587 34.0495 26.0329C34.1234 26.0984 34.2017 26.1586 34.284 26.2131C35.2815 26.8711 37.0543 26.9499 39.5463 26.4476C39.1928 26.7574 38.638 27.1476 37.8785 27.4994C37.161 27.8319 35.9605 28.0821 34.8213 28.1364C33.5613 28.1959 32.9208 27.9964 32.7685 27.8721ZM33.766 11.6479C33.7455 12.2353 33.6841 12.8207 33.5823 13.3996C33.486 14.0261 33.3863 14.6736 33.36 15.4594C33.3355 16.2224 33.43 17.0169 33.5228 17.7869C33.71 19.3391 33.9008 20.9369 33.1605 22.5136C33.0373 22.2959 32.9275 22.0709 32.8315 21.8399C32.6587 21.4714 32.4689 21.1111 32.2628 20.7601C31.1848 18.8281 28.663 14.3026 29.9528 12.4581C30.6178 11.5079 32.3013 11.4676 33.766 11.6479ZM34.165 23.9206C34.1158 23.8579 34.0662 23.7955 34.0163 23.7334L33.955 23.6564C35.2255 21.5564 34.977 19.4791 34.7548 17.6381C34.6638 16.8821 34.5798 16.1681 34.6008 15.4996C34.6235 14.7874 34.7163 14.1784 34.8073 13.5886C34.9193 12.8624 35.0348 12.1116 35.0015 11.2261C35.0275 11.1173 35.0346 11.0048 35.0225 10.8936C34.942 10.0431 33.9725 7.50213 31.995 5.20088C30.7062 3.68202 29.1007 2.46353 27.291 1.63088C28.4567 1.39249 29.6452 1.28333 30.8348 1.30538C34.4258 1.38588 37.266 2.72988 39.2768 5.30063C39.3197 5.35631 39.3589 5.41477 39.394 5.47563C40.6593 7.84863 38.911 16.4569 34.1668 23.9206H34.165ZM18.737 13.2176C18.6933 13.5326 18.1945 13.9579 17.6503 13.9579C17.6029 13.9577 17.5555 13.9542 17.5085 13.9474C17.1532 13.8851 16.8358 13.6875 16.623 13.3961C16.5425 13.2911 16.413 13.0846 16.4375 12.8974C16.4456 12.8452 16.4642 12.7951 16.4922 12.7503C16.5201 12.7055 16.5569 12.6668 16.6003 12.6366C16.8068 12.4809 17.2163 12.4231 17.6678 12.4861C18.2208 12.5631 18.7913 12.8239 18.7353 13.2176H18.737ZM32.6145 12.4984C32.6338 12.6384 32.5288 12.8484 32.3468 13.0409C32.1583 13.2461 31.9073 13.3833 31.6328 13.4311C31.5893 13.4371 31.5454 13.44 31.5015 13.4399C30.9888 13.4399 30.5548 13.0304 30.5215 12.7906C30.4795 12.4809 30.9835 12.2481 31.5015 12.1746C32.023 12.1011 32.5725 12.1904 32.6145 12.4984Z" fill="white"/>
</g>
<defs>
<clipPath id="clip0_304_101">
<rect width="42" height="42" fill="white"/>
</clipPath>
</defs>
</svg>
