<svg width="42" height="42" viewBox="0 0 42 42" fill="none" xmlns="http://www.w3.org/2000/svg">
<g clip-path="url(#clip0_304_193)">
<path d="M41.2298 25.7654C41.2055 25.6914 41.172 25.6209 41.13 25.5554C40.8868 25.0969 40.2953 24.9586 39.3678 25.1511C36.4733 25.7461 35.3533 25.3786 34.9473 25.1161C37.2958 21.5321 39.226 17.2026 40.269 13.1636C40.745 11.3261 41.6655 6.99838 40.4825 4.88613C40.4076 4.7409 40.3197 4.60268 40.22 4.47313C37.9608 1.59263 34.6498 0.0438758 30.6423 0.00187579C28.026 -0.0261242 25.7948 0.607376 25.1893 0.840126C24.8897 0.783978 24.5886 0.736127 24.2863 0.696626C23.5283 0.559856 22.7604 0.485523 21.9903 0.474376C19.9218 0.441126 18.135 0.936376 16.6528 1.94438C15.1548 1.38263 8.27555 -0.934374 4.0178 2.08263C1.63605 3.76788 0.540548 6.77788 0.752298 11.0321C0.824048 12.4636 1.63955 16.8666 2.92755 21.0841C3.73255 23.7196 4.56905 25.8126 5.4353 27.3526C6.40305 29.0921 7.4058 30.1404 8.4348 30.4851C9.2188 30.7441 10.4175 30.7354 11.6863 29.2094C12.7869 27.893 13.9219 26.6057 15.09 25.3489C15.8513 25.7601 16.6755 25.9824 17.5225 26.0086C17.5225 26.011 17.5225 26.0133 17.5225 26.0156C17.3753 26.191 17.2312 26.3689 17.0903 26.5494C16.497 27.3019 16.3728 27.4594 14.4653 27.8531C13.9228 27.9651 12.4808 28.2609 12.4598 29.2724C12.4558 29.4746 12.5112 29.6736 12.619 29.8446C13.0163 30.5849 14.2325 30.9121 14.3953 30.9524C16.7315 31.5351 18.779 31.1134 20.2963 29.7641C20.2665 33.6684 20.431 37.4956 20.9 38.6681C21.2868 39.6359 22.2335 42.0001 25.2225 42.0001C25.66 42.0001 26.143 41.9476 26.6733 41.8356C29.7918 41.1671 31.1463 39.7881 31.6695 36.7501C31.932 35.2276 32.373 31.7189 32.6128 29.5734C32.6425 29.4509 32.6758 29.3634 32.7125 29.3354C32.7125 29.3354 32.835 29.2514 33.4598 29.3879C33.4852 29.3935 33.5109 29.3976 33.5368 29.4001L33.9813 29.4386L34.0075 29.4404C35.4898 29.5086 37.3518 29.1919 38.4368 28.6879C39.5638 28.1629 41.5973 26.8801 41.228 25.7654H41.2298ZM4.1473 20.7831C2.8453 16.5219 2.0858 12.2344 2.0263 11.0339C1.83555 7.23288 2.75605 4.58863 4.7598 3.17113C7.97455 0.897876 13.2298 2.22613 15.4488 2.94363L15.4313 2.96113C11.891 6.53463 11.975 12.6456 11.9873 13.0201C11.9873 13.1636 11.9978 13.3684 12.0153 13.6501C12.0748 14.6756 12.1903 16.5901 11.8858 18.7566C11.6058 20.7691 12.2253 22.7396 13.5885 24.1624C13.7285 24.3094 13.8773 24.4476 14.0295 24.5771C13.4223 25.2264 12.1045 26.6649 10.6993 28.3536C9.7053 29.5471 9.0193 29.3179 8.7953 29.2426C8.1093 29.0151 7.37255 28.2154 6.62705 26.9291C5.78705 25.4609 4.9418 23.3731 4.1508 20.7831H4.1473ZM14.6595 29.6871C14.3939 29.6202 14.1392 29.5153 13.9035 29.3756C14.0593 29.3074 14.3183 29.2181 14.7488 29.1306C16.9958 28.6669 17.3423 28.3414 18.1 27.3806C18.3042 27.1141 18.5184 26.8555 18.7423 26.6054C18.8011 26.5396 18.8453 26.462 18.8718 26.3779C19.1693 26.1136 19.3478 26.1854 19.6348 26.3044C19.9078 26.4181 20.1738 26.7594 20.2823 27.1356C20.3348 27.3141 20.3908 27.6519 20.2035 27.9144C18.6215 30.1299 16.315 30.1019 14.6595 29.6871ZM18.324 22.7081L18.233 22.9531C18.0003 23.5779 17.7833 24.1589 17.6485 24.7101C16.4813 24.7066 15.3438 24.2061 14.481 23.3049C13.382 22.1586 12.8833 20.5644 13.1108 18.9299C13.431 16.6409 13.3138 14.6476 13.2508 13.5766L13.228 13.1916C13.746 12.7331 16.1435 11.4486 17.8533 11.8406C18.6338 12.0191 19.1098 12.5511 19.3058 13.4646C20.3295 18.1966 19.4423 20.1671 18.7283 21.7526C18.5834 22.0665 18.4492 22.3852 18.3258 22.7081H18.324ZM31.211 30.7091C31.1813 31.0189 31.148 31.3671 31.1025 31.7521L30.847 32.5186C30.8268 32.5796 30.8162 32.6434 30.8155 32.7076C30.805 33.5389 30.721 33.8434 30.6143 34.2301C30.4405 34.833 30.3349 35.4535 30.2993 36.0799C30.1068 38.5544 28.7628 39.9771 26.0695 40.5529C23.4183 41.1216 22.9475 39.6849 22.5345 38.4161C22.4915 38.2829 22.446 38.1505 22.398 38.0189C22.0218 36.9934 22.0655 35.5479 22.1233 33.5476C22.1513 32.5659 22.0795 30.2209 21.5458 28.9171C21.5528 28.4044 21.5633 27.8829 21.579 27.3561C21.5805 27.2891 21.571 27.2223 21.551 27.1584C21.5341 27.0354 21.5083 26.9137 21.474 26.7944C21.2605 26.0454 20.739 25.4189 20.109 25.1581C19.8605 25.0549 19.4038 24.8659 18.8543 25.0059C18.9715 24.5229 19.1745 23.9786 19.395 23.3871L19.4878 23.1386C19.5928 22.8586 19.7223 22.5699 19.8605 22.2636C20.606 20.6046 21.628 18.3331 20.5185 13.2021C20.1038 11.2806 18.716 10.3426 16.6125 10.5596C15.3525 10.6909 14.1975 11.2001 13.6218 11.4906C13.5063 11.549 13.3919 11.6097 13.2788 11.6726C13.4398 9.73713 14.047 6.11813 16.3168 3.82913C16.4852 3.65924 16.6622 3.49803 16.847 3.34613C16.939 3.32851 17.0258 3.29021 17.1008 3.23413C18.4168 2.23663 20.067 1.74663 22.0043 1.77638C22.7218 1.78863 23.4078 1.83588 24.0588 1.91813C27.4538 2.53938 29.7358 4.45038 31.1218 6.08838C32.5463 7.77188 33.318 9.46763 33.626 10.3829C31.3108 10.1484 29.7358 10.6051 28.936 11.7479C27.2 14.2294 29.888 19.0489 31.1795 21.3659C31.4158 21.7894 31.6205 22.1569 31.6853 22.3109C32.1053 23.3311 32.6495 24.0119 33.0468 24.5089C33.1693 24.6611 33.2883 24.8081 33.3775 24.9376C32.6775 25.1406 31.4175 25.6079 31.5313 27.9424C31.4878 28.4183 31.4388 28.8938 31.3843 29.3686C31.3038 29.7326 31.2618 30.1736 31.2093 30.7091H31.211ZM32.7685 27.8724C32.6985 26.4164 33.241 26.2641 33.8133 26.1049C33.8926 26.0829 33.9714 26.059 34.0495 26.0331C34.1234 26.0986 34.2017 26.1589 34.284 26.2134C35.2815 26.8714 37.0543 26.9501 39.5463 26.4479C39.1928 26.7576 38.638 27.1479 37.8785 27.4996C37.161 27.8321 35.9605 28.0824 34.8213 28.1366C33.5613 28.1961 32.9208 27.9966 32.7685 27.8724ZM33.766 11.6481C33.7455 12.2356 33.6841 12.8209 33.5823 13.3999C33.486 14.0264 33.3863 14.6739 33.36 15.4596C33.3355 16.2226 33.43 17.0171 33.5228 17.7871C33.71 19.3394 33.9008 20.9371 33.1605 22.5139C33.0373 22.2962 32.9275 22.0712 32.8315 21.8401C32.6587 21.4717 32.4689 21.1114 32.2628 20.7604C31.1848 18.8284 28.663 14.3029 29.9528 12.4584C30.6178 11.5081 32.3013 11.4679 33.766 11.6481ZM34.165 23.9209C34.1158 23.8582 34.0662 23.7958 34.0163 23.7336L33.955 23.6566C35.2255 21.5566 34.977 19.4794 34.7548 17.6384C34.6638 16.8824 34.5798 16.1684 34.6008 15.4999C34.6235 14.7876 34.7163 14.1786 34.8073 13.5889C34.9193 12.8626 35.0348 12.1119 35.0015 11.2264C35.0275 11.1176 35.0346 11.0051 35.0225 10.8939C34.942 10.0434 33.9725 7.50238 31.995 5.20113C30.7062 3.68227 29.1007 2.46378 27.291 1.63113C28.4567 1.39273 29.6452 1.28357 30.8348 1.30563C34.4258 1.38613 37.266 2.73013 39.2768 5.30088C39.3197 5.35655 39.3589 5.41501 39.394 5.47588C40.6593 7.84888 38.911 16.4571 34.1668 23.9209H34.165ZM18.737 13.2179C18.6933 13.5329 18.1945 13.9581 17.6503 13.9581C17.6029 13.9579 17.5555 13.9544 17.5085 13.9476C17.1532 13.8853 16.8358 13.6877 16.623 13.3964C16.5425 13.2914 16.413 13.0849 16.4375 12.8976C16.4456 12.8454 16.4642 12.7954 16.4922 12.7506C16.5201 12.7057 16.5569 12.6671 16.6003 12.6369C16.8068 12.4811 17.2163 12.4234 17.6678 12.4864C18.2208 12.5634 18.7913 12.8241 18.7353 13.2179H18.737ZM32.6145 12.4986C32.6338 12.6386 32.5288 12.8486 32.3468 13.0411C32.1583 13.2464 31.9073 13.3836 31.6328 13.4314C31.5893 13.4373 31.5454 13.4402 31.5015 13.4401C30.9888 13.4401 30.5548 13.0306 30.5215 12.7909C30.4795 12.4811 30.9835 12.2484 31.5015 12.1749C32.023 12.1014 32.5725 12.1906 32.6145 12.4986Z" fill="white"/>
</g>
<defs>
<clipPath id="clip0_304_193">
<rect width="42" height="42" fill="white"/>
</clipPath>
</defs>
</svg>
